<?xml version="1.0" encoding="UTF-8" standalone="no"?>
<!-- Created with Inkscape (http://www.inkscape.org/) -->

<svg
   width="300"
   height="150"
   viewBox="0 0 79.374998 39.687501"
   version="1.1"
   id="svg5"
   inkscape:export-filename="D:\Trabajos\Trabajo 33 Sur\Sitio Web Institucional\Imagenes\logos2\logo-chiletec.png"
   inkscape:export-xdpi="96"
   inkscape:export-ydpi="96"
   inkscape:version="1.1.2 (b8e25be833, 2022-02-05)"
   sodipodi:docname="logo-freund.svg"
   xmlns:inkscape="http://www.inkscape.org/namespaces/inkscape"
   xmlns:sodipodi="http://sodipodi.sourceforge.net/DTD/sodipodi-0.dtd"
   xmlns="http://www.w3.org/2000/svg"
   xmlns:svg="http://www.w3.org/2000/svg">
  <sodipodi:namedview
     id="namedview7"
     pagecolor="#ffffff"
     bordercolor="#666666"
     borderopacity="1.0"
     inkscape:pageshadow="2"
     inkscape:pageopacity="0.0"
     inkscape:pagecheckerboard="0"
     inkscape:document-units="mm"
     showgrid="false"
     units="px"
     width="300px"
     showguides="false"
     inkscape:zoom="2.0938813"
     inkscape:cx="171.21315"
     inkscape:cy="87.397506"
     inkscape:window-width="1920"
     inkscape:window-height="1017"
     inkscape:window-x="-8"
     inkscape:window-y="-8"
     inkscape:window-maximized="1"
     inkscape:current-layer="g1850" />
  <defs
     id="defs2" />
  <g
     inkscape:label="Capa 1"
     inkscape:groupmode="layer"
     id="layer1">
    <g
       id="g1850"
       transform="matrix(0.20787543,0,0,0.20787543,13.71112,6.4524594)">
      <path
         class="st0"
         d="m 207.4,71.9 c -1.7,2.6 -6.4,7 -7.9,6 -1.5,-1 1.7,-5.5 4.4,-9.3 2.7,-3.8 6.6,-7.6 8,-6.8 2.1,1.1 -2.7,7.4 -4.5,10.1 m -86.3,-9.7 c 3.6,-3 5.4,-0.6 1.5,2.9 -2.5,2.2 -5.4,1.3 -5.4,1.3 0,0 0.3,-1.2 3.9,-4.2 m 100,21.2 c 4.4,-3 8.8,-8 10.1,-10.4 -1,-1.3 -2.2,-2.5 -2.2,-2.5 -3.5,3.7 -10.9,9.1 -11.9,7.6 -1,-1.5 1.4,-9.9 8.6,-21.4 7.1,-11.5 15.4,-24.2 17,-26.6 1.5,-2.3 1.6,-7 0.4,-7.8 -1.2,-0.8 -6,1.8 -8.4,5 -2.3,3.2 -14.2,22.1 -16.3,28.2 -1.9,-2.7 -3.8,-4.5 -6.3,-4.5 -2.5,0 -7.1,1.3 -15.5,12.9 -8.6,11.8 -12.6,14.3 -13.5,13.6 -0.9,-0.7 5.9,-14.9 9.5,-18.3 3.6,-3.3 0.3,-5.1 -0.8,-6 -1.1,-0.8 -2.1,-2 -3.2,-1.7 -1.1,0.3 -8.1,5.6 -10.3,8.8 1.2,-2.3 2.7,-4.5 2,-5.3 -0.8,-0.8 -3.9,-4.1 -6.7,-3.2 -1.4,0.5 -7.7,10.8 -10.2,14.4 -2.5,3.7 -7.7,9.3 -9.4,10.6 -1.8,1.3 -4.8,2.7 -5.1,1.3 -0.3,-1.3 11.3,-17.3 13,-19.3 1.7,-2 2.4,-3.8 0.4,-5 -2,-1.2 -3.1,-3.2 -4.7,-2.5 -1.6,0.7 -6,7.6 -8.5,11.5 -2.5,3.8 -9,12.5 -11.7,12.5 -2.7,0 -1.7,-1.2 -0.6,-3 1,-1.8 7,-11.1 8.3,-12.3 1.3,-1.2 5.1,-4.5 1.7,-6.6 -3.3,-2.2 -4,-3.7 -6.2,-0.8 -2.2,2.8 -11.9,16.8 -15.1,20.1 -3.1,3.3 -10.6,7.8 -12.6,5.5 -1.9,-2.2 0.1,-5.8 1.4,-6.6 3.7,3 8,0.3 10.6,-1.9 2.6,-2.2 8.5,-8.4 5.6,-13.2 -2.9,-4.8 -6.8,-6.6 -12,-2.8 -5.6,4 -10.1,8.9 -13.3,16.6 -4.9,4 -10.6,9 -11.8,7.8 -1.1,-1 7.3,-12.4 13,-15.9 0.3,-2.8 2.3,-11 -1.3,-11 -3.6,0 -7.5,8.1 -12.4,7.3 0.4,-1.8 1.2,-1.8 1.3,-3.5 0.1,-2.7 -1.4,-3.9 -3.6,-3.7 -2.2,0.3 -4.6,2.3 -4.9,5.7 -0.2,2.3 0.4,5.9 -0.5,7.9 -0.9,2 -4.8,5.3 -3.9,6.6 0.9,1.3 5.5,-1.2 6.8,-5.3 2.2,0.9 4.1,-0.8 4.4,0.5 0.2,1.3 -8,7 -8.3,12.1 -0.1,1.5 0.4,3.1 1.1,4.4 v 0 c 1.1,2 2.9,3.5 4.6,3.4 2.1,-0.1 4.3,-1.5 7.1,-3.4 v 0 c 2.3,-1.6 5,-3.9 6.1,-4.9 0,1.7 0.3,3.4 1.5,4.9 0,0 2,2.9 6.3,2.9 3,0 6,-1.3 8.9,-2.9 v 0 c 2.9,-1.6 5.4,-3.4 6.8,-4.6 -0.1,1.5 0,3.2 1.2,4.6 l 0.2,0.3 c 1.6,1.8 3.8,2.8 7.1,2.8 3.3,0 5.9,-2.1 7,-3.1 v 0 c 0.3,-0.3 0.5,-0.4 0.5,-0.4 0,0 0.7,3.8 4.6,3.8 2.6,0 5.6,-2.3 7.4,-3.4 0.6,-0.3 0.9,-0.6 0.9,-0.6 0,0 -0.1,0.2 -0.2,0.6 h 6.1 -6.2 c 0,0.5 0.1,1.2 1.3,1.9 2,1.2 4.1,3 5.6,1.3 0.4,-0.5 1.2,-1.7 2.3,-3.2 2.7,-4.1 7.3,-10.7 12.5,-14 -3.5,5.7 -4.7,10.8 -3.7,12.8 0.2,0.4 0.6,0.9 1,1.4 v 0 c 1.6,1.8 4.5,3.7 6.3,2.9 1,-0.5 2.4,-1.6 3.9,-2.9 1.7,-1.5 3.7,-3.2 5.7,-4.1 0.1,1.4 0.6,2.9 1.6,4.1 v 0 c 1.3,1.6 3.3,2.7 5.8,2.7 2.1,0 4.6,-1.3 6.6,-2.7 v 0 c 2.2,-1.5 3.8,-3.1 3.8,-3.1 0.1,1 0.5,2.1 1.2,3.1 1.1,1.4 2.4,2.6 5.7,2.6 1.6,0 3.8,-0.8 6.1,-2.4"
         id="path1658" />
      <path
         class="st1"
         d="m 207.4,71.9 c -1.7,2.6 -6.4,7 -7.9,6 -1.5,-1 1.7,-5.5 4.4,-9.3 2.7,-3.8 6.6,-7.6 8,-6.8 2.1,1.1 -2.7,7.4 -4.5,10.1 z m -86.3,-9.7 c 3.6,-3 5.4,-0.6 1.5,2.9 -2.5,2.2 -5.4,1.3 -5.4,1.3 0,0 0.3,-1.2 3.9,-4.2 z m 100,21.2 c 4.4,-3 8.8,-8 10.1,-10.4 -1,-1.3 -2.2,-2.5 -2.2,-2.5 -3.5,3.7 -10.9,9.1 -11.9,7.6 -1,-1.5 1.4,-9.9 8.6,-21.4 7.1,-11.5 15.4,-24.2 17,-26.6 1.5,-2.3 1.6,-7 0.4,-7.8 -1.2,-0.8 -6,1.8 -8.4,5 -2.3,3.2 -14.2,22.1 -16.3,28.2 -1.9,-2.7 -3.8,-4.5 -6.3,-4.5 -2.5,0 -7.1,1.3 -15.5,12.9 -8.6,11.8 -12.6,14.3 -13.5,13.6 -0.9,-0.7 5.9,-14.9 9.5,-18.3 3.6,-3.3 0.3,-5.1 -0.8,-6 -1.1,-0.8 -2.1,-2 -3.2,-1.7 -1.1,0.3 -8.1,5.6 -10.3,8.8 1.2,-2.3 2.7,-4.5 2,-5.3 -0.8,-0.8 -3.9,-4.1 -6.7,-3.2 -1.4,0.5 -7.7,10.8 -10.2,14.4 -2.5,3.7 -7.7,9.3 -9.4,10.6 -1.8,1.3 -4.8,2.7 -5.1,1.3 -0.3,-1.3 11.3,-17.3 13,-19.3 1.7,-2 2.4,-3.8 0.4,-5 -2,-1.2 -3.1,-3.2 -4.7,-2.5 -1.6,0.7 -6,7.6 -8.5,11.5 -2.5,3.8 -9,12.5 -11.7,12.5 -2.7,0 -1.7,-1.2 -0.6,-3 1,-1.8 7,-11.1 8.3,-12.3 1.3,-1.2 5.1,-4.5 1.7,-6.6 -3.3,-2.2 -4,-3.7 -6.2,-0.8 -2.2,2.8 -11.9,16.8 -15.1,20.1 -3.1,3.3 -10.6,7.8 -12.6,5.5 -1.9,-2.2 0.1,-5.8 1.4,-6.6 3.7,3 8,0.3 10.6,-1.9 2.6,-2.2 8.5,-8.4 5.6,-13.2 -2.9,-4.8 -6.8,-6.6 -12,-2.8 -5.6,4 -10.1,8.9 -13.3,16.6 -4.9,4 -10.6,9 -11.8,7.8 -1.1,-1 7.3,-12.4 13,-15.9 0.3,-2.8 2.3,-11 -1.3,-11 -3.6,0 -7.5,8.1 -12.4,7.3 0.4,-1.8 1.2,-1.8 1.3,-3.5 0.1,-2.7 -1.4,-3.9 -3.6,-3.7 -2.2,0.3 -4.6,2.3 -4.9,5.7 -0.2,2.3 0.4,5.9 -0.5,7.9 -0.9,2 -4.8,5.3 -3.9,6.6 0.9,1.3 5.5,-1.2 6.8,-5.3 2.2,0.9 4.1,-0.8 4.4,0.5 0.2,1.3 -8,7 -8.3,12.1 -0.1,1.5 0.4,3.1 1.1,4.4 v 0 c 1.1,2 2.9,3.5 4.6,3.4 2.1,-0.1 4.3,-1.5 7.1,-3.4 v 0 c 2.3,-1.6 5,-3.9 6.1,-4.9 0,1.7 0.3,3.4 1.5,4.9 0,0 2,2.9 6.3,2.9 3,0 6,-1.3 8.9,-2.9 v 0 c 2.9,-1.6 5.4,-3.4 6.8,-4.6 -0.1,1.5 0,3.2 1.2,4.6 l 0.2,0.3 c 1.6,1.8 3.8,2.8 7.1,2.8 3.3,0 5.9,-2.1 7,-3.1 v 0 c 0.3,-0.3 0.5,-0.4 0.5,-0.4 0,0 0.7,3.8 4.6,3.8 2.6,0 5.6,-2.3 7.4,-3.4 0.6,-0.3 0.9,-0.6 0.9,-0.6 0,0 -0.1,0.2 -0.2,0.6 h 6.1 -6.2 c 0,0.5 0.1,1.2 1.3,1.9 2,1.2 4.1,3 5.6,1.3 0.4,-0.5 1.2,-1.7 2.3,-3.2 2.7,-4.1 7.3,-10.7 12.5,-14 -3.5,5.7 -4.7,10.8 -3.7,12.8 0.2,0.4 0.6,0.9 1,1.4 v 0 c 1.6,1.8 4.5,3.7 6.3,2.9 1,-0.5 2.4,-1.6 3.9,-2.9 1.7,-1.5 3.7,-3.2 5.7,-4.1 0.1,1.4 0.6,2.9 1.6,4.1 v 0 c 1.3,1.6 3.3,2.7 5.8,2.7 2.1,0 4.6,-1.3 6.6,-2.7 v 0 c 2.2,-1.5 3.8,-3.1 3.8,-3.1 0.1,1 0.5,2.1 1.2,3.1 1.1,1.4 2.4,2.6 5.7,2.6 1.6,0 3.8,-0.8 6.1,-2.4"
         id="path1660" />
      <polygon
         class="st0"
         points="10.3,93.1 10.5,89.9 229.5,89.9 229.5,93.1 "
         id="polygon1662" />
      <polygon
         class="st1"
         points="10.3,93.1 10.5,89.9 229.5,89.9 229.5,93.1 "
         id="polygon1664" />
      <path
         class="st0"
         d="m 206,72.6 c -1.7,2.6 -6.4,7 -8,6 -1.5,-1 1.7,-5.5 4.4,-9.3 2.7,-3.8 6.6,-7.5 8,-6.8 2.2,1.1 -2.7,7.4 -4.4,10.1 M 119.6,63 c 3.6,-3 5.4,-0.6 1.5,2.9 -2.5,2.2 -5.4,1.3 -5.4,1.3 0,0 0.4,-1.3 3.9,-4.2 m 100.1,21.1 c 4.4,-3 8.8,-7.9 10.1,-10.4 -1,-1.3 -2.2,-2.5 -2.2,-2.5 -3.5,3.7 -10.9,9.1 -11.9,7.6 -1,-1.5 1.4,-10 8.6,-21.4 7.1,-11.5 15.4,-24.2 17,-26.6 1.5,-2.3 1.6,-7 0.4,-7.8 -1.2,-0.8 -6,1.8 -8.4,5 -2.3,3.2 -14.2,22.1 -16.3,28.2 -1.9,-2.7 -3.8,-4.5 -6.3,-4.5 -2.5,0 -7.1,1.3 -15.5,12.9 -8.4,11.6 -12.4,14.1 -13.3,13.4 -0.9,-0.7 5.9,-14.9 9.5,-18.3 3.6,-3.3 0.3,-5.1 -0.8,-6 -1.1,-0.8 -2.1,-2 -3.2,-1.7 -1.1,0.3 -8.1,5.6 -10.3,8.8 1.2,-2.3 2.7,-4.5 2,-5.3 -0.8,-0.8 -3.9,-4.1 -6.7,-3.2 -1.4,0.5 -7.7,10.8 -10.2,14.4 -2.5,3.7 -7.7,9.3 -9.4,10.6 -1.8,1.3 -4.8,2.7 -5.1,1.3 -0.3,-1.3 11.3,-17.3 13,-19.3 1.7,-2 2.4,-3.8 0.4,-5 -2,-1.2 -3.1,-3.2 -4.7,-2.5 -1.6,0.7 -6,7.6 -8.5,11.5 -2.5,3.8 -9,12.5 -11.7,12.5 -2.7,0 -1.7,-1.2 -0.6,-3 1,-1.8 7,-11.1 8.3,-12.3 1.3,-1.2 5.1,-4.5 1.7,-6.6 -3.3,-2.2 -4,-3.7 -6.2,-0.8 -2.2,2.8 -11.9,16.8 -15.1,20.1 -3.1,3.3 -10.6,7.8 -12.6,5.5 -1.9,-2.2 0.1,-5.8 1.4,-6.6 3.7,3 8,0.3 10.6,-1.9 2.6,-2.2 8.5,-8.4 5.6,-13.2 -2.9,-4.8 -6.8,-6.6 -12,-2.8 -5.6,4 -10.1,8.9 -13.3,16.6 -4.9,4 -10.6,9 -11.8,7.8 -1.1,-1 7.3,-12.4 13,-15.9 0.3,-2.8 2.3,-11 -1.3,-11 -3.6,0 -7.5,8.1 -12.4,7.3 0.4,-1.8 1.2,-1.8 1.3,-3.5 0.1,-2.7 -1.4,-3.9 -3.6,-3.7 -2.2,0.3 -4.6,2.3 -4.9,5.7 -0.2,2.3 0.4,5.9 -0.5,7.9 -0.9,2 -4.8,5.3 -3.9,6.6 0.9,1.3 5.5,-1.2 6.8,-5.3 2.2,0.9 4.1,-0.8 4.4,0.5 0.2,1.3 -8,7 -8.3,12.1 -0.1,1.5 0.4,3.1 1.1,4.4 v 0 c 1.1,2 2.9,3.5 4.6,3.4 2.1,-0.1 4.3,-1.5 7.1,-3.4 v 0 c 2.3,-1.6 5,-3.9 6.1,-4.9 0,1.7 0.3,3.4 1.5,4.9 0,0 2,2.9 6.3,2.9 3,0 6,-1.3 8.9,-2.9 v 0 c 2.9,-1.6 5.4,-3.4 6.8,-4.6 -0.1,1.5 0,3.2 1.2,4.6 l 0.2,0.3 c 1.6,1.8 3.8,2.8 7.1,2.8 3.3,0 5.9,-2.2 7,-3.1 v 0 c 0.3,-0.3 0.5,-0.4 0.5,-0.4 0,0 0.7,3.8 4.6,3.8 2.6,0 5.6,-2.3 7.4,-3.4 0.6,-0.3 0.9,-0.6 0.9,-0.6 0,0 -0.1,0.2 -0.2,0.6 h 6.1 -6.1 c 0,0.5 0.1,1.2 1.3,1.9 2,1.2 4.1,3 5.6,1.3 0.4,-0.5 1.2,-1.7 2.3,-3.3 2.7,-4.1 7.3,-10.7 12.5,-14 -3.4,5.5 -4.6,10.6 -3.6,12.6 0.2,0.4 0.6,0.9 1,1.4 v 0 c 1.6,1.8 4.5,3.7 6.3,2.9 1,-0.5 2.4,-1.6 3.9,-2.9 1.7,-1.5 3.7,-3.2 5.7,-4.1 0.1,1.4 0.6,2.9 1.6,4.1 v 0 c 1.3,1.6 3.3,2.7 5.8,2.7 2.1,0 4.6,-1.3 6.6,-2.7 v 0 c 2.2,-1.5 3.8,-3.1 3.8,-3.1 0.1,1 0.5,2.1 1.2,3.1 1.1,1.4 2.4,2.6 5.7,2.6 1.6,0 3.8,-0.8 6.1,-2.4"
         id="path1666" />
      <path
         class="st1"
         d="m 206,72.6 c -1.7,2.6 -6.4,7 -8,6 -1.5,-1 1.7,-5.5 4.4,-9.3 2.7,-3.8 6.6,-7.5 8,-6.8 2.2,1.1 -2.7,7.4 -4.4,10.1 z M 119.6,63 c 3.6,-3 5.4,-0.6 1.5,2.9 -2.5,2.2 -5.4,1.3 -5.4,1.3 0,0 0.4,-1.3 3.9,-4.2 z m 100.1,21.1 c 4.4,-3 8.8,-7.9 10.1,-10.4 -1,-1.3 -2.2,-2.5 -2.2,-2.5 -3.5,3.7 -10.9,9.1 -11.9,7.6 -1,-1.5 1.4,-10 8.6,-21.4 7.1,-11.5 15.4,-24.2 17,-26.6 1.5,-2.3 1.6,-7 0.4,-7.8 -1.2,-0.8 -6,1.8 -8.4,5 -2.3,3.2 -14.2,22.1 -16.3,28.2 -1.9,-2.7 -3.8,-4.5 -6.3,-4.5 -2.5,0 -7.1,1.3 -15.5,12.9 -8.4,11.6 -12.4,14.1 -13.3,13.4 -0.9,-0.7 5.9,-14.9 9.5,-18.3 3.6,-3.3 0.3,-5.1 -0.8,-6 -1.1,-0.8 -2.1,-2 -3.2,-1.7 -1.1,0.3 -8.1,5.6 -10.3,8.8 1.2,-2.3 2.7,-4.5 2,-5.3 -0.8,-0.8 -3.9,-4.1 -6.7,-3.2 -1.4,0.5 -7.7,10.8 -10.2,14.4 -2.5,3.7 -7.7,9.3 -9.4,10.6 -1.8,1.3 -4.8,2.7 -5.1,1.3 -0.3,-1.3 11.3,-17.3 13,-19.3 1.7,-2 2.4,-3.8 0.4,-5 -2,-1.2 -3.1,-3.2 -4.7,-2.5 -1.6,0.7 -6,7.6 -8.5,11.5 -2.5,3.8 -9,12.5 -11.7,12.5 -2.7,0 -1.7,-1.2 -0.6,-3 1,-1.8 7,-11.1 8.3,-12.3 1.3,-1.2 5.1,-4.5 1.7,-6.6 -3.3,-2.2 -4,-3.7 -6.2,-0.8 -2.2,2.8 -11.9,16.8 -15.1,20.1 -3.1,3.3 -10.6,7.8 -12.6,5.5 -1.9,-2.2 0.1,-5.8 1.4,-6.6 3.7,3 8,0.3 10.6,-1.9 2.6,-2.2 8.5,-8.4 5.6,-13.2 -2.9,-4.8 -6.8,-6.6 -12,-2.8 -5.6,4 -10.1,8.9 -13.3,16.6 -4.9,4 -10.6,9 -11.8,7.8 -1.1,-1 7.3,-12.4 13,-15.9 0.3,-2.8 2.3,-11 -1.3,-11 -3.6,0 -7.5,8.1 -12.4,7.3 0.4,-1.8 1.2,-1.8 1.3,-3.5 0.1,-2.7 -1.4,-3.9 -3.6,-3.7 -2.2,0.3 -4.6,2.3 -4.9,5.7 -0.2,2.3 0.4,5.9 -0.5,7.9 -0.9,2 -4.8,5.3 -3.9,6.6 0.9,1.3 5.5,-1.2 6.8,-5.3 2.2,0.9 4.1,-0.8 4.4,0.5 0.2,1.3 -8,7 -8.3,12.1 -0.1,1.5 0.4,3.1 1.1,4.4 v 0 c 1.1,2 2.9,3.5 4.6,3.4 2.1,-0.1 4.3,-1.5 7.1,-3.4 v 0 c 2.3,-1.6 5,-3.9 6.1,-4.9 0,1.7 0.3,3.4 1.5,4.9 0,0 2,2.9 6.3,2.9 3,0 6,-1.3 8.9,-2.9 v 0 c 2.9,-1.6 5.4,-3.4 6.8,-4.6 -0.1,1.5 0,3.2 1.2,4.6 l 0.2,0.3 c 1.6,1.8 3.8,2.8 7.1,2.8 3.3,0 5.9,-2.2 7,-3.1 v 0 c 0.3,-0.3 0.5,-0.4 0.5,-0.4 0,0 0.7,3.8 4.6,3.8 2.6,0 5.6,-2.3 7.4,-3.4 0.6,-0.3 0.9,-0.6 0.9,-0.6 0,0 -0.1,0.2 -0.2,0.6 h 6.1 -6.1 c 0,0.5 0.1,1.2 1.3,1.9 2,1.2 4.1,3 5.6,1.3 0.4,-0.5 1.2,-1.7 2.3,-3.3 2.7,-4.1 7.3,-10.7 12.5,-14 -3.4,5.5 -4.6,10.6 -3.6,12.6 0.2,0.4 0.6,0.9 1,1.4 v 0 c 1.6,1.8 4.5,3.7 6.3,2.9 1,-0.5 2.4,-1.6 3.9,-2.9 1.7,-1.5 3.7,-3.2 5.7,-4.1 0.1,1.4 0.6,2.9 1.6,4.1 v 0 c 1.3,1.6 3.3,2.7 5.8,2.7 2.1,0 4.6,-1.3 6.6,-2.7 v 0 c 2.2,-1.5 3.8,-3.1 3.8,-3.1 0.1,1 0.5,2.1 1.2,3.1 1.1,1.4 2.4,2.6 5.7,2.6 1.6,0 3.8,-0.8 6.1,-2.4"
         id="path1668" />
      <path
         class="st0"
         d="M 26.3,12.7 22.4,34 c 16.2,-5.9 64.1,-21.9 52.7,1.6 0,0 -2.2,5.6 -8.3,14.4 -2.6,0 -5.1,0.1 -8.2,0.3 -3.8,0.3 -7.2,3.4 -7.4,7.4 -0.1,3.1 1.6,5.6 4.2,6.8 C 45.4,75.7 30.8,89 10.1,102 L 6,124.8 c 31.2,-19.4 51.4,-41.2 64.4,-59.5 0.9,0 1.9,-0.1 2.9,-0.2 3.8,-0.3 7.2,-3.4 7.4,-7.4 0.1,-2.1 -0.7,-3.9 -2,-5.2 9.6,-16.2 12.6,-27.3 12.6,-27.3 13.1,-38.6 -65,-12.5 -65,-12.5"
         id="path1738" />
      <path
         class="st1"
         d="M 26.3,12.7 22.4,34 c 16.2,-5.9 64.1,-21.9 52.7,1.6 0,0 -2.2,5.6 -8.3,14.4 -2.6,0 -5.1,0.1 -8.2,0.3 -3.8,0.3 -7.2,3.4 -7.4,7.4 -0.1,3.1 1.6,5.6 4.2,6.8 C 45.4,75.7 30.8,89 10.1,102 L 6,124.8 c 31.2,-19.4 51.4,-41.2 64.4,-59.5 0.9,0 1.9,-0.1 2.9,-0.2 3.8,-0.3 7.2,-3.4 7.4,-7.4 0.1,-2.1 -0.7,-3.9 -2,-5.2 9.6,-16.2 12.6,-27.3 12.6,-27.3 13.1,-38.6 -65,-12.5 -65,-12.5 z"
         id="path1740" />
      <polygon
         class="st3"
         points="9.7,93.6 9.9,90.5 229.5,90.5 229.5,93.6 "
         id="polygon1742" />
      <path
         class="st4"
         d="m 205.8,73.1 c -1.7,2.6 -6.4,7 -8,6 -1.5,-1 1.7,-5.5 4.4,-9.3 2.7,-3.8 6.6,-7.5 8,-6.8 2.2,1.2 -2.7,7.5 -4.4,10.1 m -86.3,-9.6 c 3.6,-3 5.4,-0.6 1.5,2.9 -2.5,2.2 -5.4,1.3 -5.4,1.3 0,0 0.3,-1.2 3.9,-4.2 m 100,21.2 c 4.4,-3 8.8,-7.9 10.1,-10.4 -1,-1.3 -2.2,-2.5 -2.2,-2.5 -3.5,3.7 -10.9,9.1 -11.9,7.6 -1,-1.5 1.4,-10 8.6,-21.4 7.1,-11.5 15.4,-24.2 17,-26.6 1.5,-2.3 1.6,-7 0.4,-7.8 -1.2,-0.8 -6,1.8 -8.4,5 -2.3,3.2 -14.2,22.1 -16.3,28.2 -1.9,-2.7 -3.8,-4.5 -6.3,-4.5 -2.5,0 -7.1,1.3 -15.5,12.9 -8.4,11.6 -12.4,14.1 -13.3,13.4 -0.9,-0.7 5.9,-14.9 9.5,-18.3 3.6,-3.3 0.3,-5.1 -0.8,-6 -1.1,-0.8 -2.1,-2 -3.2,-1.7 -1.1,0.3 -8.1,5.6 -10.3,8.8 1.2,-2.3 2.7,-4.5 2,-5.3 -0.8,-0.8 -3.9,-4.1 -6.7,-3.2 -1.4,0.5 -7.7,10.8 -10.2,14.4 -2.5,3.7 -7.7,9.3 -9.4,10.6 -1.8,1.3 -4.8,2.7 -5.1,1.3 -0.3,-1.3 11.3,-17.3 13,-19.3 1.7,-2 2.4,-3.8 0.4,-5 -2,-1.2 -3.1,-3.2 -4.7,-2.5 -1.6,0.7 -6,7.6 -8.5,11.5 -2.5,3.8 -9,12.5 -11.7,12.5 -2.7,0 -1.7,-1.2 -0.6,-3 1,-1.8 7,-11.1 8.3,-12.3 1.3,-1.2 5.1,-4.5 1.7,-6.6 -3.3,-2.2 -4,-3.7 -6.2,-0.8 -2.2,2.8 -11.9,16.8 -15.1,20.1 -3.1,3.3 -10.6,7.8 -12.6,5.5 -1.9,-2.2 0.1,-5.8 1.4,-6.6 3.7,3 8,0.3 10.6,-1.9 2.6,-2.2 8.5,-8.4 5.6,-13.2 -2.9,-4.8 -6.8,-6.6 -12,-2.8 -5.6,4 -10.1,8.9 -13.3,16.6 -4.9,4 -10.6,9 -11.8,7.8 -1.1,-1 7.3,-12.4 13,-15.9 0.3,-2.8 2.3,-11 -1.3,-11 -3.6,0 -7.5,8.1 -12.4,7.3 0.4,-1.8 1.2,-1.8 1.3,-3.5 0.1,-2.7 -1.4,-3.9 -3.6,-3.7 -2.2,0.3 -4.6,2.3 -4.9,5.7 -0.2,2.3 0.4,5.9 -0.5,7.9 -0.9,2 -4.8,5.3 -3.9,6.6 0.9,1.3 5.5,-1.2 6.8,-5.3 2.2,0.9 4.1,-0.8 4.4,0.5 0.2,1.3 -8,7 -8.3,12.1 -0.1,1.5 0.4,3.1 1.1,4.4 v 0 c 1.1,2 2.9,3.5 4.6,3.4 2.1,-0.1 4.3,-1.5 7.1,-3.4 v 0 c 2.3,-1.6 5,-3.9 6.1,-4.9 0,1.7 0.3,3.4 1.5,4.9 0,0 2,2.9 6.3,2.9 3,0 6,-1.3 8.9,-2.9 v 0 c 2.9,-1.6 5.4,-3.4 6.8,-4.6 -0.1,1.5 0,3.2 1.2,4.6 L 126,85 c 1.6,1.8 3.8,2.8 7.1,2.8 3.3,0 5.9,-2.2 7,-3.1 v 0 c 0.3,-0.3 0.5,-0.4 0.5,-0.4 0,0 0.7,3.8 4.6,3.8 2.6,0 5.6,-2.3 7.4,-3.4 0.6,-0.3 0.9,-0.6 0.9,-0.6 0,0 -0.1,0.2 -0.2,0.6 h 6.1 -6.1 c 0,0.5 0.1,1.2 1.3,1.9 2,1.2 4.1,3 5.6,1.3 0.4,-0.5 1.2,-1.7 2.3,-3.3 2.7,-4.1 7.3,-10.7 12.5,-14 -3.4,5.5 -4.6,10.6 -3.6,12.6 0.2,0.4 0.6,0.9 1,1.4 v 0 c 1.6,1.8 4.5,3.7 6.3,2.9 1,-0.5 2.4,-1.6 3.9,-2.9 1.7,-1.5 3.7,-3.2 5.7,-4.1 0.1,1.4 0.6,2.9 1.6,4.1 v 0 c 1.3,1.6 3.3,2.7 5.8,2.7 2.1,0 4.6,-1.3 6.6,-2.7 v 0 c 2.2,-1.5 3.8,-3.1 3.8,-3.1 0.1,1 0.5,2.1 1.2,3.1 1.1,1.4 2.4,2.6 5.7,2.6 1.6,0 3.8,-0.8 6.1,-2.4"
         id="path1744" />
      <path
         class="st4"
         d="m 26.1,13.2 -3.9,21.3 c 16.2,-5.9 64.1,-21.9 52.7,1.6 0,0 -2.2,5.6 -8.3,14.4 -2.6,0 -5.1,0.1 -8.2,0.3 -3.8,0.3 -7.2,3.4 -7.4,7.4 -0.1,3.1 1.6,5.6 4.2,6.8 -10,11.2 -24.6,24.5 -45.3,37.5 L 5.8,125.3 C 36.9,105.8 57.1,84 70.1,65.8 71,65.8 72,65.7 73,65.6 76.8,65.3 80.2,62.2 80.4,58.2 80.5,56.1 79.7,54.3 78.4,53 88,36.7 91,25.6 91,25.6 104.2,-12.9 26.1,13.2 26.1,13.2"
         id="path1780" />
    </g>
  </g>
  <style
     type="text/css"
     id="style1656">
	.st0{fill:#FFFFFF;}
	.st1{fill:none;stroke:#FFFFFF;stroke-width:6.52;stroke-linecap:round;stroke-linejoin:round;stroke-miterlimit:10;}
	.st2{fill:none;stroke:#FFFFFF;stroke-width:5.558;stroke-linecap:round;stroke-linejoin:round;stroke-miterlimit:10;}
	.st3{fill:#E21F26;}
	.st4{fill:#00AEEF;}
	.st5{fill:#231F20;}
</style>
</svg>
