<?xml version="1.0" encoding="UTF-8"?>
<svg id="Capa_1" data-name="Capa 1" xmlns="http://www.w3.org/2000/svg" viewBox="0 0 38.04 35.38">
  <g>
    <g>
      <polygon points="11.21 20.37 11.21 20.37 11.21 20.37 11.21 20.37"/>
      <path d="M33.95,20.34c.08-.14,.17-.28,.26-.42,.22-.35,.43-.67,.56-1.04v-.77c-.18-.46-.45-.79-.83-1-.13-.07-.25-.15-.37-.23-.14-.09-.27-.17-.41-.25-.37-.2-.41-.51-.41-.72,0-.51,0-1.02,0-1.54,0-.95-.02-1.94,.03-2.91,.02-.55-.13-1.02-.46-1.35-.34-.35-.83-.51-1.4-.52-1.98,.04-3.99,.03-5.94,.03-.95,0-1.89,0-2.84,0-.31,0-.57-.08-.84-.24-2.53-1.55-5.06-3.1-7.59-4.64-.96-.59-1.82-.38-2.41,.58l-.64,1.05c-.58,.95-1.16,1.9-1.73,2.85-.18,.29-.42,.42-.73,.4-.27-.01-.54-.01-.81,0h-.19c-.92,.01-1.57,.66-1.58,1.58,0,.96,0,1.92,0,2.89,0,.37-.08,.68-.27,.97-.53,.83-1.04,1.67-1.54,2.51-.46,.77-.26,1.65,.49,2.14,.32,.21,.6,.39,.88,.53,.31,.17,.45,.41,.45,.77,0,.56,0,1.12,0,1.68,0,.94,.01,1.91-.02,2.86-.02,.48,.15,.92,.46,1.24,.33,.34,.81,.5,1.29,.51,2.02-.03,4.06-.03,6.05-.02,.96,0,1.93,0,2.89,0,.27,0,.51,.07,.75,.21,2.54,1.56,5.08,3.11,7.62,4.66,.99,.6,1.83,.4,2.43-.59l.63-1.04c.58-.94,1.15-1.89,1.72-2.83,.12-.19,.32-.44,.76-.42,.27,.02,.54,.01,.8,0h.19c.9-.01,1.55-.67,1.56-1.57,0-1.01,0-2.01,0-3.02,0-.29,.06-.53,.21-.75,.34-.53,.67-1.07,.99-1.62Zm-28.53-.5c-.05,.03-.1,.04-.15,.04-.14,0-.26-.08-.31-.12-.07-.05-.15-.1-.23-.14-.12-.07-.25-.15-.36-.24-.5-.38-.64-1.03-.34-1.56,.23-.41,.48-.82,.73-1.22l.43-.7,.41,.16v1c0,.79,0,1.57,0,2.36,0,.09,0,.33-.19,.43Zm14.24-5.85s-.1-.06-.28,.01l-.46,.19c-.45,.19-.9,.37-1.35,.57-.34,.15-.6,.09-.82-.2-.5-.63-.5-.77,0-1.38,.62-.76,1.5-1.24,2.35-1.27h0c1.14,0,1.84,.32,2.53,.65,.42,.2,.63,.71,.47,1.15-.2,.56-.41,1.14-.79,1.66-.63,.87-1.72,1.38-2.79,1.38-.33,0-.67-.05-.98-.15-.46-.16-.47-.46-.39-.69,.01-.04,.02-.09,0-.15-.06-.49,.34-.64,.46-.69,.64-.25,1.27-.52,1.9-.79,.13-.05,.18-.13,.19-.18,0-.04-.02-.08-.06-.11Zm-3.13-2.37c0,.06,0,.12,0,.19,0,.12-.01,.23,0,.33,.11,.64-.21,1.12-.46,1.51-.11,.17-.27,.25-.49,.25-.11,0-.23,0-.35,0h-.17s-.05,0-.08,0c-.12,0-.27-.02-.36-.18-.05-.09-.12-.18-.18-.26-.16-.22-.35-.47-.36-.82,0-.4,0-.8,0-1.2,0-.31,0-.62,0-.93,0-.07,0-.28,.14-.42,.14-.14,.35-.14,.42-.14,.43,.01,.87,.02,1.3,0,.19,0,.34,.04,.45,.14,.14,.14,.15,.33,.15,.47,0,.25,0,.5,0,.74v.33Zm-2.35,1.97c.19,.31,.08,.53-.05,.72-.46,.69-1.02,.52-1.44,.29-.33-.17-.7-.31-1.05-.45l-.38-.15c-.17-.07-.24-.05-.26-.04,0,0-.03,.01-.05,.07-.02,.06-.06,.15,.2,.26l.39,.17c.42,.18,.86,.37,1.3,.53,.46,.16,.66,.42,.68,.89,.01,.32-.04,.66-.56,.77-.28,.06-.55,.08-.86,.09h-.02c-1.4-.03-2.44-.68-3.08-1.93-.17-.32-.29-.65-.42-1-.18-.5-.02-1,.38-1.21,.86-.45,1.88-.9,3.07-.6,.92,.23,1.65,.77,2.16,1.58Zm-5.41,1.51c.17,.33,.42,.65,.77,.99,.02,.01,.04,.03,.06,.04,.26,.17,.33,.35,.22,.56-.22,.41-.53,.48-.74,.48-.31,0-.62,0-.93,0h-.41s-.37,0-.37,0c-.3,0-.61,0-.91,0h-.02c-.17,0-.29-.04-.38-.14-.1-.1-.14-.23-.14-.41,0-.46,0-.92,0-1.37,0-.16,.04-.29,.13-.39,.09-.09,.22-.14,.39-.14h0c.58,0,1.16,0,1.73,0h0c.26,0,.45,.12,.57,.36Zm.26,2.88c.36-.35,.71-.71,1.06-1.07,.16-.17,.36-.2,.6-.11,.87,.34,1.73,.36,2.65,.05,.15-.05,.36,0,.61,.13,.19,.1,.42,.26,.47,.46,.06,.22-.09,.36-.15,.41l-2.69,2.69s-.06,.06-.09,.08l-.1,.09h-.17c-.24-.08-.28-.28-.29-.36l-.07-.31c-.07-.3-.13-.6-.19-.91-.03-.16-.1-.23-.28-.26-.21-.04-.41-.08-.62-.13-.18-.04-.36-.08-.54-.11-.1-.02-.31-.06-.37-.26-.06-.2,.1-.35,.15-.4Zm5.21-1.18c-.29-.29-.45-.69-.44-1.12,.01-.86,.65-1.48,1.53-1.48h.02c.85,0,1.51,.68,1.5,1.53,0,.85-.68,1.51-1.53,1.51-.41,0-.79-.16-1.07-.44Zm6.76-.63c.41-.37,.69-.72,.88-1.11,.12-.25,.32-.38,.61-.38,3.12,0,6.24,0,9.36,0,.12-.02,.31,.01,.44,.15,.15,.15,.14,.36,.14,.43-.01,.34-.02,.78,0,1.23,0,.14,0,.33-.14,.48-.14,.15-.34,.16-.48,.16h0c-1.3,0-2.6,0-3.9,0h-6.21c-.15,0-.26,0-.38-.02-.24-.05-.43-.22-.52-.45-.07-.19,0-.35,.21-.49Zm1.94-6.23h8.03c1,0,1.44,.44,1.45,1.43v.8c0,.53,0,1.06,0,1.59,0,.13-.01,.31-.15,.45-.13,.14-.33,.12-.45,.15-2.96,0-5.93,0-8.9,0h0c-.16,0-.33-.02-.45-.16-.12-.14-.1-.33-.06-.49,.14-.6-.15-1.19-.68-1.44-.63-.29-1.16-.53-1.75-.62-.88-.14-1.69,.01-2.48,.48-.1,.06-.31,.18-.49,.07-.19-.11-.18-.34-.17-.45,.01-.36,.02-.78,0-1.19-.01-.2,.03-.35,.13-.45,.15-.16,.38-.16,.52-.16,1.82,0,3.64,0,5.46,0Zm-13.53-.97c.74-1.21,1.46-2.38,2.17-3.54,.44-.71,1.15-.89,1.86-.46,1.63,1,3.26,1.99,4.9,2.99l1.69,1.04s.08,.05,.12,.08l.33,.23-.26,.21c-.16,.13-.32,.12-.42,.11-3.35,0-6.66,0-9.96,0-.04,0-.1,.01-.16,.01-.13,0-.28-.03-.36-.2-.1-.21,.03-.38,.09-.46Zm-3.5,3.75c0-.53,0-1.06,0-1.59,0-.67,.51-1.17,1.19-1.18,.71,0,1.42,0,2.13,0h.67s.22,0,.22,0h.83c.72,0,1.43,0,2.15,0,.15,0,.36,.01,.5,.16,.14,.15,.15,.35,.14,.5-.02,.32-.01,.64,0,.96v.24c0,.1,0,.31-.17,.41-.18,.1-.36-.01-.42-.05-1.29-.78-2.66-.73-4.34,.16-.53,.28-.78,.87-.61,1.48,.03,.11,.09,.32-.04,.49-.1,.13-.27,.16-.4,.16-.02,0-.03,0-.05,0-.42-.02-.84,0-1.26,0-.16,.02-.31-.04-.41-.14-.1-.09-.14-.23-.14-.4,0-.39,0-.78,0-1.17Zm7.85,13.59c0,.16-.02,.37-.16,.52-.14,.14-.34,.16-.5,.16h-.02c-1.31,0-2.62,0-3.93,0h-1.88c-.89,0-1.36-.47-1.36-1.36v-2.45c0-1.67,0-3.34,0-5.01,0-.17,.02-.38,.17-.52s.36-.16,.53-.15c.41,.02,.82,.01,1.23,0h.67s.22,.43,.22,.43l-.15,.13s-.1,.08-.15,.12c-.09,.07-.18,.14-.26,.22-.1,.1-.13,.19-.12,.23,.01,.04,.08,.09,.22,.12,.53,.12,1.06,.23,1.6,.33,.23,.04,.55,.16,.62,.62,.06,.38,.14,.75,.22,1.12l.09,.41c.04,.21,.07,.25,.14,.27,.06,.02,.12,.02,.27-.13,.59-.6,1.19-1.19,1.79-1.79l.05-.05c.07-.08,.17-.19,.32-.24l.14-.05,.11,.1c.17,.15,.15,.34,.14,.44v2.17c0,1.45,0,2.9,0,4.34Zm2.59,.54c-.13,.12-.29,.14-.42,.14-.03,0-.06,0-.08,0-.41-.02-.81-.01-1.16,0-.14,0-.33,0-.47-.14-.14-.14-.16-.33-.16-.46,0-2.5,0-4.99,0-7.49,0-.34,.16-.55,.3-.69,.42-.42,.65-.65,.95-.65h0c.3,0,.51,.22,.94,.67,.23,.23,.25,.48,.25,.68,0,.93,0,1.85,0,2.78v1.92c0,.91,0,1.81,0,2.72,0,.17-.02,.38-.17,.53Zm-.11-9.3c0-.21,.15-.33,.41-.56,.26-.23,.5-.18,.65-.13,.86,.31,1.74,.3,2.62-.03,.09-.03,.37-.14,.62,.12,.33,.34,.67,.68,1.02,1.02,.05,.05,.22,.22,.16,.42-.06,.21-.29,.25-.37,.27-.15,.03-.29,.06-.44,.09-.22,.05-.44,.1-.66,.13-.2,.03-.29,.12-.33,.33-.06,.31-.12,.62-.2,.96l-.19,.89-2.9-2.91c-.25-.25-.39-.39-.39-.6Zm12.67,10.43c-.73,1.19-1.44,2.34-2.14,3.49-.3,.49-.68,.74-1.11,.74-.25,0-.53-.09-.81-.26-2.17-1.32-4.33-2.65-6.49-3.97-.11-.05-.24-.12-.3-.28l-.07-.18,.15-.11c.14-.11,.29-.09,.38-.08,3.35,0,6.65,0,9.96,0,.16-.02,.4-.05,.52,.17,.13,.23-.03,.42-.09,.5Zm3.51-4.82v2.46c0,.92-.46,1.38-1.37,1.38h-3.7c-3.29,0-6.58,0-9.87,0-.18,0-.37-.02-.5-.16-.14-.14-.15-.34-.15-.47,.01-1.67,0-3.33,0-5v-2.56s2.46,2.46,2.46,2.46c.06,.06,.12,.12,.18,.17,.08,.07,.16,.1,.21,.08,.05-.01,.09-.08,.11-.17,.13-.53,.24-1.08,.34-1.62,.07-.37,.27-.58,.64-.64,.53-.09,1.06-.21,1.53-.31,.16-.04,.25-.1,.26-.14,.01-.05-.02-.15-.14-.27-.08-.09-.18-.17-.28-.25l-.35-.3,.19-.19c.2-.2,.4-.19,.5-.18h2.99c2.09,0,4.18,0,6.28,0,.18,.01,.38,.02,.52,.16,.14,.15,.16,.35,.16,.51,0,1.68,0,3.35,0,5.03Zm.32-5.65c0-.08,0-.32,.19-.42,.19-.1,.38,.03,.45,.08,.45,.24,.93,.55,1.06,1.06,.1,.41-.03,.86-.42,1.42-.18,.26-.35,.54-.51,.82-.08,.13-.16,.26-.23,.39l-.1,.16-.42-.13v-.99c0-.8,0-1.6,0-2.4Z"/>
      <polygon points="14.17 17.63 14.17 17.63 14.17 17.63 14.17 17.63"/>
    </g>
    <path d="M24.07,24.13s0,.07,.02,.09c0,0,.06,.05,.25,.05,.61,0,1.22,0,1.83,0h1.46c.24,0,.49,0,.73,0,.37,0,.73,0,1.1,0h0c.24,0,.25-.06,.25-.15,0-.05-.01-.07-.02-.09-.04-.04-.13-.07-.23-.07-1.71,0-3.41,0-5.12,0-.27,0-.28,.11-.28,.17Z"/>
    <path d="M27.63,21.98h-1.49c-.26,0-.51,0-.77,0-.34,0-.68,0-1.02,0-.17,0-.23,.05-.25,.06,0,0-.03,.03-.03,.09,0,.06,0,.16,.27,.16,1.7,0,3.39,0,5.09,0,.12,0,.22-.03,.27-.07,0,0,.03-.03,.03-.1,0-.05,0-.15-.3-.15-.6,0-1.2,0-1.8,0Z"/>
  </g>
  <path d="M21.7,8.4v.12s.11-.07,.11-.07c.09-.06,2.26-1.48,2.23-2.45,0-.22-.07-.35-.2-.4-.3-.12-.85,.32-1.09,.53-.09-.73-.38-.84-.5-.86-.22-.02-.43,.18-.51,.48-.16,.58-.04,2.56-.04,2.65Z"/>
  <path d="M20.23,7.83l.03-.08c.02-.05,.49-1.25,.47-1.59,0-.18-.1-.31-.23-.33-.11-.02-.32,.03-.54,.53-.12-.16-.41-.47-.7-.46-.12,0-.21,.06-.25,.15-.11,.29,.29,.9,1.15,1.72l.06,.06Z"/>
  <circle cx="31.48" cy="28.15" r=".26"/>
  <path d="M23.54,8.97c.14,0,.26-.11,.26-.26s-.11-.26-.26-.26-.26,.11-.26,.26,.11,.26,.26,.26Z"/>
  <path d="M4.75,26.38c.22,0,.4-.18,.4-.4s-.18-.41-.4-.41-.4,.18-.4,.41,.18,.4,.4,.4Zm0-.67c.15,0,.27,.12,.27,.27s-.12,.27-.27,.27-.27-.12-.27-.27,.12-.27,.27-.27Z"/>
  <path d="M30.31,28.31c.09,0,.16-.07,.16-.16s-.07-.16-.16-.16-.16,.07-.16,.16,.07,.16,.16,.16Z"/>
</svg>